<mxfile host="drawio.corp.amazon.com" modified="2024-01-29T19:16:58.109Z" agent="Mozilla/5.0 (Windows NT 10.0; Win64; x64; rv:109.0) Gecko/20100101 Firefox/115.0" etag="OMRJF7URNhCTRcDQNetJ" version="21.7.4" type="device">
  <diagram name="Page-1" id="AQdQF6EYHc-QMIIIyyBc">
    <mxGraphModel dx="2666" dy="7605" grid="1" gridSize="10" guides="1" tooltips="1" connect="1" arrows="1" fold="1" page="1" pageScale="1" pageWidth="2339" pageHeight="3300" math="0" shadow="0">
      <root>
        <mxCell id="0" />
        <mxCell id="1" parent="0" />
        <mxCell id="3fOf5RHcVx8ONG75kpiX-5" value="AWS Cloud" style="points=[[0,0],[0.25,0],[0.5,0],[0.75,0],[1,0],[1,0.25],[1,0.5],[1,0.75],[1,1],[0.75,1],[0.5,1],[0.25,1],[0,1],[0,0.75],[0,0.5],[0,0.25]];outlineConnect=0;gradientColor=none;html=1;whiteSpace=wrap;fontSize=12;fontStyle=0;container=1;pointerEvents=0;collapsible=0;recursiveResize=0;shape=mxgraph.aws4.group;grIcon=mxgraph.aws4.group_aws_cloud_alt;strokeColor=#232F3E;fillColor=none;verticalAlign=top;align=left;spacingLeft=30;fontColor=#232F3E;dashed=0;" vertex="1" parent="1">
          <mxGeometry x="990" y="-6454" width="910" height="554" as="geometry" />
        </mxCell>
        <mxCell id="3fOf5RHcVx8ONG75kpiX-29" value="Region" style="sketch=0;outlineConnect=0;gradientColor=none;html=1;whiteSpace=wrap;fontSize=12;fontStyle=0;shape=mxgraph.aws4.group;grIcon=mxgraph.aws4.group_region;strokeColor=#879196;fillColor=none;verticalAlign=top;align=left;spacingLeft=30;fontColor=#879196;dashed=1;" vertex="1" parent="3fOf5RHcVx8ONG75kpiX-5">
          <mxGeometry x="30" y="32" width="870" height="512" as="geometry" />
        </mxCell>
        <mxCell id="3fOf5RHcVx8ONG75kpiX-18" style="edgeStyle=orthogonalEdgeStyle;rounded=0;orthogonalLoop=1;jettySize=auto;html=1;exitX=1;exitY=0.5;exitDx=0;exitDy=0;exitPerimeter=0;" edge="1" parent="3fOf5RHcVx8ONG75kpiX-5" source="3fOf5RHcVx8ONG75kpiX-6" target="3fOf5RHcVx8ONG75kpiX-11">
          <mxGeometry relative="1" as="geometry" />
        </mxCell>
        <mxCell id="3fOf5RHcVx8ONG75kpiX-20" style="edgeStyle=orthogonalEdgeStyle;rounded=0;orthogonalLoop=1;jettySize=auto;html=1;entryX=0;entryY=0.5;entryDx=0;entryDy=0;entryPerimeter=0;" edge="1" parent="3fOf5RHcVx8ONG75kpiX-5" source="3fOf5RHcVx8ONG75kpiX-6" target="3fOf5RHcVx8ONG75kpiX-7">
          <mxGeometry relative="1" as="geometry" />
        </mxCell>
        <mxCell id="3fOf5RHcVx8ONG75kpiX-6" value="&lt;div&gt;EventBridge&lt;/div&gt;&lt;div&gt;Event management&lt;br&gt;&lt;/div&gt;" style="sketch=0;points=[[0,0,0],[0.25,0,0],[0.5,0,0],[0.75,0,0],[1,0,0],[0,1,0],[0.25,1,0],[0.5,1,0],[0.75,1,0],[1,1,0],[0,0.25,0],[0,0.5,0],[0,0.75,0],[1,0.25,0],[1,0.5,0],[1,0.75,0]];outlineConnect=0;fontColor=#232F3E;fillColor=#E7157B;strokeColor=#ffffff;dashed=0;verticalLabelPosition=bottom;verticalAlign=top;align=center;html=1;fontSize=12;fontStyle=0;aspect=fixed;shape=mxgraph.aws4.resourceIcon;resIcon=mxgraph.aws4.eventbridge;" vertex="1" parent="3fOf5RHcVx8ONG75kpiX-5">
          <mxGeometry x="65" y="225" width="78" height="78" as="geometry" />
        </mxCell>
        <mxCell id="3fOf5RHcVx8ONG75kpiX-23" style="edgeStyle=orthogonalEdgeStyle;rounded=0;orthogonalLoop=1;jettySize=auto;html=1;exitX=1;exitY=0.5;exitDx=0;exitDy=0;exitPerimeter=0;" edge="1" parent="3fOf5RHcVx8ONG75kpiX-5" source="3fOf5RHcVx8ONG75kpiX-7" target="3fOf5RHcVx8ONG75kpiX-12">
          <mxGeometry relative="1" as="geometry" />
        </mxCell>
        <mxCell id="3fOf5RHcVx8ONG75kpiX-26" style="edgeStyle=orthogonalEdgeStyle;rounded=0;orthogonalLoop=1;jettySize=auto;html=1;exitX=0;exitY=0.21;exitDx=0;exitDy=0;exitPerimeter=0;" edge="1" parent="3fOf5RHcVx8ONG75kpiX-5" source="3fOf5RHcVx8ONG75kpiX-7" target="3fOf5RHcVx8ONG75kpiX-9">
          <mxGeometry relative="1" as="geometry" />
        </mxCell>
        <mxCell id="3fOf5RHcVx8ONG75kpiX-27" style="edgeStyle=orthogonalEdgeStyle;rounded=0;orthogonalLoop=1;jettySize=auto;html=1;exitX=1;exitY=0.79;exitDx=0;exitDy=0;exitPerimeter=0;entryX=0.5;entryY=0;entryDx=0;entryDy=0;entryPerimeter=0;" edge="1" parent="3fOf5RHcVx8ONG75kpiX-5" source="3fOf5RHcVx8ONG75kpiX-7" target="3fOf5RHcVx8ONG75kpiX-10">
          <mxGeometry relative="1" as="geometry" />
        </mxCell>
        <mxCell id="3fOf5RHcVx8ONG75kpiX-7" value="&lt;div&gt;Lambda&lt;/div&gt;&lt;div&gt;Count words&lt;/div&gt;" style="outlineConnect=0;dashed=0;verticalLabelPosition=bottom;verticalAlign=top;align=center;html=1;shape=mxgraph.aws3.lambda;fillColor=#F58534;gradientColor=none;" vertex="1" parent="3fOf5RHcVx8ONG75kpiX-5">
          <mxGeometry x="315" y="89" width="76.5" height="93" as="geometry" />
        </mxCell>
        <mxCell id="3fOf5RHcVx8ONG75kpiX-8" value="&lt;div&gt;SQS&lt;/div&gt;&lt;div&gt;Feedback feeling&lt;br&gt;&lt;/div&gt;" style="sketch=0;points=[[0,0,0],[0.25,0,0],[0.5,0,0],[0.75,0,0],[1,0,0],[0,1,0],[0.25,1,0],[0.5,1,0],[0.75,1,0],[1,1,0],[0,0.25,0],[0,0.5,0],[0,0.75,0],[1,0.25,0],[1,0.5,0],[1,0.75,0]];outlineConnect=0;fontColor=#232F3E;fillColor=#E7157B;strokeColor=#ffffff;dashed=0;verticalLabelPosition=bottom;verticalAlign=top;align=center;html=1;fontSize=12;fontStyle=0;aspect=fixed;shape=mxgraph.aws4.resourceIcon;resIcon=mxgraph.aws4.sqs;" vertex="1" parent="3fOf5RHcVx8ONG75kpiX-5">
          <mxGeometry x="563" y="252" width="78" height="78" as="geometry" />
        </mxCell>
        <mxCell id="3fOf5RHcVx8ONG75kpiX-9" value="&lt;div&gt;S3&lt;/div&gt;&lt;div&gt;Event Store&lt;/div&gt;" style="outlineConnect=0;dashed=0;verticalLabelPosition=bottom;verticalAlign=top;align=center;html=1;shape=mxgraph.aws3.s3;fillColor=#E05243;gradientColor=none;" vertex="1" parent="3fOf5RHcVx8ONG75kpiX-5">
          <mxGeometry x="65" y="62.5" width="76.5" height="93" as="geometry" />
        </mxCell>
        <mxCell id="3fOf5RHcVx8ONG75kpiX-10" value="&lt;div&gt;DynamoDB&lt;/div&gt;&lt;div&gt;Feedback attributes&lt;br&gt;&lt;/div&gt;" style="sketch=0;points=[[0,0,0],[0.25,0,0],[0.5,0,0],[0.75,0,0],[1,0,0],[0,1,0],[0.25,1,0],[0.5,1,0],[0.75,1,0],[1,1,0],[0,0.25,0],[0,0.5,0],[0,0.75,0],[1,0.25,0],[1,0.5,0],[1,0.75,0]];outlineConnect=0;fontColor=#232F3E;fillColor=#C925D1;strokeColor=#ffffff;dashed=0;verticalLabelPosition=bottom;verticalAlign=top;align=center;html=1;fontSize=12;fontStyle=0;aspect=fixed;shape=mxgraph.aws4.resourceIcon;resIcon=mxgraph.aws4.dynamodb;" vertex="1" parent="3fOf5RHcVx8ONG75kpiX-5">
          <mxGeometry x="435" y="415" width="78" height="78" as="geometry" />
        </mxCell>
        <mxCell id="3fOf5RHcVx8ONG75kpiX-24" style="edgeStyle=orthogonalEdgeStyle;rounded=0;orthogonalLoop=1;jettySize=auto;html=1;exitX=1;exitY=0.21;exitDx=0;exitDy=0;exitPerimeter=0;entryX=1;entryY=0.21;entryDx=0;entryDy=0;entryPerimeter=0;" edge="1" parent="3fOf5RHcVx8ONG75kpiX-5" source="3fOf5RHcVx8ONG75kpiX-11" target="3fOf5RHcVx8ONG75kpiX-9">
          <mxGeometry relative="1" as="geometry">
            <Array as="points">
              <mxPoint x="435" y="264" />
              <mxPoint x="435" y="82" />
            </Array>
          </mxGeometry>
        </mxCell>
        <mxCell id="3fOf5RHcVx8ONG75kpiX-25" style="edgeStyle=orthogonalEdgeStyle;rounded=0;orthogonalLoop=1;jettySize=auto;html=1;exitX=1;exitY=0.5;exitDx=0;exitDy=0;exitPerimeter=0;" edge="1" parent="3fOf5RHcVx8ONG75kpiX-5" source="3fOf5RHcVx8ONG75kpiX-11" target="3fOf5RHcVx8ONG75kpiX-8">
          <mxGeometry relative="1" as="geometry" />
        </mxCell>
        <mxCell id="3fOf5RHcVx8ONG75kpiX-28" style="edgeStyle=orthogonalEdgeStyle;rounded=0;orthogonalLoop=1;jettySize=auto;html=1;exitX=1;exitY=0.79;exitDx=0;exitDy=0;exitPerimeter=0;entryX=0;entryY=0;entryDx=0;entryDy=0;entryPerimeter=0;" edge="1" parent="3fOf5RHcVx8ONG75kpiX-5" source="3fOf5RHcVx8ONG75kpiX-11" target="3fOf5RHcVx8ONG75kpiX-10">
          <mxGeometry relative="1" as="geometry" />
        </mxCell>
        <mxCell id="3fOf5RHcVx8ONG75kpiX-11" value="&lt;div&gt;Lambda&lt;/div&gt;&lt;div&gt;Identify feeling&lt;/div&gt;" style="outlineConnect=0;dashed=0;verticalLabelPosition=bottom;verticalAlign=top;align=center;html=1;shape=mxgraph.aws3.lambda;fillColor=#F58534;gradientColor=none;" vertex="1" parent="3fOf5RHcVx8ONG75kpiX-5">
          <mxGeometry x="315" y="245" width="76.5" height="93" as="geometry" />
        </mxCell>
        <mxCell id="3fOf5RHcVx8ONG75kpiX-12" value="&lt;div&gt;SQS&lt;/div&gt;&lt;div&gt;Feedback length&lt;/div&gt;" style="sketch=0;points=[[0,0,0],[0.25,0,0],[0.5,0,0],[0.75,0,0],[1,0,0],[0,1,0],[0.25,1,0],[0.5,1,0],[0.75,1,0],[1,1,0],[0,0.25,0],[0,0.5,0],[0,0.75,0],[1,0.25,0],[1,0.5,0],[1,0.75,0]];outlineConnect=0;fontColor=#232F3E;fillColor=#E7157B;strokeColor=#ffffff;dashed=0;verticalLabelPosition=bottom;verticalAlign=top;align=center;html=1;fontSize=12;fontStyle=0;aspect=fixed;shape=mxgraph.aws4.resourceIcon;resIcon=mxgraph.aws4.sqs;" vertex="1" parent="3fOf5RHcVx8ONG75kpiX-5">
          <mxGeometry x="563" y="96" width="78" height="78" as="geometry" />
        </mxCell>
        <mxCell id="3fOf5RHcVx8ONG75kpiX-30" value="&lt;div&gt;EC2&lt;/div&gt;&lt;div&gt;Further processing&lt;br&gt;&lt;/div&gt;" style="outlineConnect=0;dashed=0;verticalLabelPosition=bottom;verticalAlign=top;align=center;html=1;shape=mxgraph.aws3.ec2;fillColor=#F58534;gradientColor=none;" vertex="1" parent="3fOf5RHcVx8ONG75kpiX-5">
          <mxGeometry x="780" y="105" width="50" height="67" as="geometry" />
        </mxCell>
        <mxCell id="3fOf5RHcVx8ONG75kpiX-31" value="&lt;div&gt;ECS&lt;/div&gt;&lt;div&gt;Further processing&lt;/div&gt;" style="outlineConnect=0;dashed=0;verticalLabelPosition=bottom;verticalAlign=top;align=center;html=1;shape=mxgraph.aws3.ecs;fillColor=#F58534;gradientColor=none;" vertex="1" parent="3fOf5RHcVx8ONG75kpiX-5">
          <mxGeometry x="781" y="222" width="50" height="57.5" as="geometry" />
        </mxCell>
        <mxCell id="3fOf5RHcVx8ONG75kpiX-32" value="&lt;div&gt;Private applications&lt;/div&gt;&lt;div&gt;Further processing&lt;br&gt;&lt;/div&gt;" style="sketch=0;outlineConnect=0;fontColor=#232F3E;gradientColor=none;fillColor=#7AA116;strokeColor=none;dashed=0;verticalLabelPosition=bottom;verticalAlign=top;align=center;html=1;fontSize=12;fontStyle=0;aspect=fixed;pointerEvents=1;shape=mxgraph.aws4.vpc_access_points;" vertex="1" parent="3fOf5RHcVx8ONG75kpiX-5">
          <mxGeometry x="787.87" y="333" width="42.13" height="62" as="geometry" />
        </mxCell>
        <mxCell id="3fOf5RHcVx8ONG75kpiX-35" style="edgeStyle=orthogonalEdgeStyle;rounded=0;orthogonalLoop=1;jettySize=auto;html=1;entryX=1;entryY=0.5;entryDx=0;entryDy=0;entryPerimeter=0;" edge="1" parent="3fOf5RHcVx8ONG75kpiX-5" source="3fOf5RHcVx8ONG75kpiX-34" target="3fOf5RHcVx8ONG75kpiX-12">
          <mxGeometry relative="1" as="geometry" />
        </mxCell>
        <mxCell id="3fOf5RHcVx8ONG75kpiX-36" style="edgeStyle=orthogonalEdgeStyle;rounded=0;orthogonalLoop=1;jettySize=auto;html=1;exitX=0;exitY=0.5;exitDx=0;exitDy=0;" edge="1" parent="3fOf5RHcVx8ONG75kpiX-5" source="3fOf5RHcVx8ONG75kpiX-34" target="3fOf5RHcVx8ONG75kpiX-8">
          <mxGeometry relative="1" as="geometry" />
        </mxCell>
        <mxCell id="3fOf5RHcVx8ONG75kpiX-37" style="edgeStyle=orthogonalEdgeStyle;rounded=0;orthogonalLoop=1;jettySize=auto;html=1;exitX=0.5;exitY=1;exitDx=0;exitDy=0;" edge="1" parent="3fOf5RHcVx8ONG75kpiX-5" source="3fOf5RHcVx8ONG75kpiX-34" target="3fOf5RHcVx8ONG75kpiX-10">
          <mxGeometry relative="1" as="geometry" />
        </mxCell>
        <mxCell id="3fOf5RHcVx8ONG75kpiX-34" value="" style="swimlane;startSize=0;" vertex="1" parent="3fOf5RHcVx8ONG75kpiX-5">
          <mxGeometry x="740" y="98" width="140" height="337" as="geometry" />
        </mxCell>
        <mxCell id="3fOf5RHcVx8ONG75kpiX-17" style="edgeStyle=orthogonalEdgeStyle;rounded=0;orthogonalLoop=1;jettySize=auto;html=1;exitX=1;exitY=0.47;exitDx=0;exitDy=0;exitPerimeter=0;" edge="1" parent="1" source="3fOf5RHcVx8ONG75kpiX-13" target="3fOf5RHcVx8ONG75kpiX-6">
          <mxGeometry relative="1" as="geometry">
            <Array as="points">
              <mxPoint x="960" y="-6238" />
              <mxPoint x="960" y="-6186" />
            </Array>
          </mxGeometry>
        </mxCell>
        <mxCell id="3fOf5RHcVx8ONG75kpiX-42" style="edgeStyle=orthogonalEdgeStyle;rounded=0;orthogonalLoop=1;jettySize=auto;html=1;exitX=0.77;exitY=0.17;exitDx=0;exitDy=0;exitPerimeter=0;entryX=0;entryY=0.5;entryDx=0;entryDy=0;entryPerimeter=0;" edge="1" parent="1" source="3fOf5RHcVx8ONG75kpiX-13" target="3fOf5RHcVx8ONG75kpiX-9">
          <mxGeometry relative="1" as="geometry" />
        </mxCell>
        <mxCell id="3fOf5RHcVx8ONG75kpiX-13" value="Internet" style="outlineConnect=0;dashed=0;verticalLabelPosition=bottom;verticalAlign=top;align=center;html=1;shape=mxgraph.aws3.internet;fillColor=#D2D3D3;gradientColor=none;" vertex="1" parent="1">
          <mxGeometry x="815" y="-6275" width="79.5" height="79.5" as="geometry" />
        </mxCell>
        <mxCell id="3fOf5RHcVx8ONG75kpiX-41" style="edgeStyle=orthogonalEdgeStyle;rounded=0;orthogonalLoop=1;jettySize=auto;html=1;entryX=0;entryY=0.47;entryDx=0;entryDy=0;entryPerimeter=0;" edge="1" parent="1" source="3fOf5RHcVx8ONG75kpiX-38" target="3fOf5RHcVx8ONG75kpiX-13">
          <mxGeometry relative="1" as="geometry">
            <Array as="points">
              <mxPoint x="760" y="-6308" />
              <mxPoint x="760" y="-6238" />
            </Array>
          </mxGeometry>
        </mxCell>
        <mxCell id="3fOf5RHcVx8ONG75kpiX-38" value="Mobile client" style="verticalLabelPosition=bottom;verticalAlign=top;html=1;shadow=0;dashed=0;strokeWidth=1;shape=mxgraph.android.phone2;strokeColor=#c0c0c0;" vertex="1" parent="1">
          <mxGeometry x="627" y="-6338" width="30" height="60" as="geometry" />
        </mxCell>
        <mxCell id="3fOf5RHcVx8ONG75kpiX-40" style="edgeStyle=orthogonalEdgeStyle;rounded=0;orthogonalLoop=1;jettySize=auto;html=1;entryX=0;entryY=0.47;entryDx=0;entryDy=0;entryPerimeter=0;" edge="1" parent="1" source="3fOf5RHcVx8ONG75kpiX-39" target="3fOf5RHcVx8ONG75kpiX-13">
          <mxGeometry relative="1" as="geometry">
            <Array as="points">
              <mxPoint x="760" y="-6187" />
              <mxPoint x="760" y="-6238" />
            </Array>
          </mxGeometry>
        </mxCell>
        <mxCell id="3fOf5RHcVx8ONG75kpiX-39" value="Desktop client" style="sketch=0;pointerEvents=1;shadow=0;dashed=0;html=1;strokeColor=none;fillColor=#434445;aspect=fixed;labelPosition=center;verticalLabelPosition=bottom;verticalAlign=top;align=center;outlineConnect=0;shape=mxgraph.vvd.laptop;" vertex="1" parent="1">
          <mxGeometry x="599.64" y="-6218" width="84.72" height="61" as="geometry" />
        </mxCell>
      </root>
    </mxGraphModel>
  </diagram>
</mxfile>
